<svg id="图层_2" data-name="图层 2" xmlns="http://www.w3.org/2000/svg" viewBox="0 0 24 24"><path d="M2.17,11.78a9.84,9.84,0,0,1,.77-3.6A9.72,9.72,0,0,1,5.05,5.05a9.75,9.75,0,0,1,7-2.88,9.76,9.76,0,0,1,3.82.77,9.89,9.89,0,0,1,3.12,2.11,8.57,8.57,0,0,1,.8.9L18,7.29a.23.23,0,0,0,.08.4l5,1.23a.23.23,0,0,0,.29-.22l0-5.17a.23.23,0,0,0-.37-.18L21.45,4.61A12,12,0,0,0,0,11.77.23.23,0,0,0,.23,12H1.94A.22.22,0,0,0,2.17,11.78Zm21.6.22H22.06a.22.22,0,0,0-.23.22,9.84,9.84,0,0,1-.77,3.6A9.61,9.61,0,0,1,19,19,9.75,9.75,0,0,1,12,21.83a9.76,9.76,0,0,1-3.82-.77A10,10,0,0,1,5.05,19a9.78,9.78,0,0,1-.79-.9L6,16.71a.23.23,0,0,0-.09-.4l-5-1.23a.22.22,0,0,0-.28.22l0,5.17a.23.23,0,0,0,.37.18l1.61-1.26A12,12,0,0,0,24,12.23.23.23,0,0,0,23.77,12Z"/></svg>