<?xml version="1.0" encoding="utf-8"?>
<!-- Generator: Adobe Illustrator 22.1.0, SVG Export Plug-In . SVG Version: 6.00 Build 0)  -->
<svg version="1.1" id="图层_1" xmlns="http://www.w3.org/2000/svg" xmlns:xlink="http://www.w3.org/1999/xlink" x="0px" y="0px"
	 viewBox="0 0 20 20" style="enable-background:new 0 0 20 20;" xml:space="preserve">
<style type="text/css">
	.st0{fill:#FFFFFF;}
</style>
<path class="st0" d="M0,18.3V20h20v-1.7H0z M2.5,9.2h0.8V5L0.8,7.5v10h1.7V9.2z M5,9.6l0.8,1.7h0.4v0.8h0.4v1.7h0.8v-1.7h0.4v-0.8
	h0.4l0.8-1.7V7.9L10,7.1H4.2L5,7.9V9.6z M9.2,3.8V2.1H8.3L7.9,1.7H7.7C8,1.2,8.6,0.8,9.2,0.8c1.1,0,2.1,0.9,2.1,2.1
	c0,0.6,0.2,1.2,0.8,1.9c0,0.1,0.1,0.1,0.2,0.2l0.1,0h-1.4v4.2h6.7v8.3h1.7v-10L15.8,5h-2.4l-0.7-0.7c0,0,0,0-0.1-0.1
	c-0.4-0.5-0.6-0.9-0.6-1.4c0-1.6-1.3-2.9-2.9-2.9c-1.1,0-2,0.7-2.3,1.7H6.3L5.8,2.1H5v1.7L4.2,4.6H10L9.2,3.8z M10,5H4.2v1.7H10V5z
	 M5.4,6.3C5.2,6.3,5,6.1,5,5.8s0.2-0.4,0.4-0.4c0.2,0,0.4,0.2,0.4,0.4S5.6,6.3,5.4,6.3z M7.1,6.3c-0.2,0-0.4-0.2-0.4-0.4
	s0.2-0.4,0.4-0.4c0.2,0,0.4,0.2,0.4,0.4S7.3,6.3,7.1,6.3z M8.8,6.3c-0.2,0-0.4-0.2-0.4-0.4s0.2-0.4,0.4-0.4s0.4,0.2,0.4,0.4
	S9,6.3,8.8,6.3z M16.3,15H8.8l-0.8,1.3H6.3L5.4,15H3.8v2.5h12.5V15z M4.6,12.9c0.2,0,0.4-0.2,0.4-0.4c0-0.2-0.2-0.4-0.4-0.4
	c-0.2,0-0.4,0.2-0.4,0.4C4.2,12.7,4.4,12.9,4.6,12.9z M5,13.8c0,0.2,0.2,0.4,0.4,0.4c0.2,0,0.4-0.2,0.4-0.4c0-0.2-0.2-0.4-0.4-0.4
	C5.2,13.3,5,13.5,5,13.8z M8.3,13.8c0,0.2,0.2,0.4,0.4,0.4s0.4-0.2,0.4-0.4c0-0.2-0.2-0.4-0.4-0.4S8.3,13.5,8.3,13.8z M9.2,12.5
	c0,0.2,0.2,0.4,0.4,0.4c0.2,0,0.4-0.2,0.4-0.4c0-0.2-0.2-0.4-0.4-0.4C9.4,12.1,9.2,12.3,9.2,12.5z"/>
</svg>
