<svg xmlns="http://www.w3.org/2000/svg" width="20" height="20" viewBox="0 0 20 20">
  <metadata><?xpacket begin="﻿" id="W5M0MpCehiHzreSzNTczkc9d"?>
<x:xmpmeta xmlns:x="adobe:ns:meta/" x:xmptk="Adobe XMP Core 5.6-c142 79.160924, 2017/07/13-01:06:39        ">
   <rdf:RDF xmlns:rdf="http://www.w3.org/1999/02/22-rdf-syntax-ns#">
      <rdf:Description rdf:about=""/>
   </rdf:RDF>
</x:xmpmeta>
                                                                                                    
                                                                                                    
                                                                                                    
                                                                                                    
                                                                                                    
                                                                                                    
                                                                                                    
                                                                                                    
                                                                                                    
                                                                                                    
                                                                                                    
                                                                                                    
                                                                                                    
                                                                                                    
                                                                                                    
                                                                                                    
                                                                                                    
                                                                                                    
                                                                                                    
                                                                                                    
                           
<?xpacket end="w"?></metadata>
<defs>
    <style>
      .cls-1 {
        fill: #fff;
        fill-rule: evenodd;
      }
    </style>
  </defs>
  <path id="形状_14" data-name="形状 14" class="cls-1" d="M116.993,675.858a2.1,2.1,0,0,0,1.842,1.092,1.186,1.186,0,0,1,1.168,1.2v3.717a1.187,1.187,0,0,1-1.168,1.2,2.094,2.094,0,0,0-1.842,1.094,2.216,2.216,0,0,0,0,2.185,1.22,1.22,0,0,1-.428,1.64l-3.127,1.856a1.152,1.152,0,0,1-1.577-.408c-0.006-.009-0.011-0.019-0.016-0.028a2.1,2.1,0,0,0-3.685,0,1.16,1.16,0,0,1-1.014.6,1.142,1.142,0,0,1-.58-0.161l-3.131-1.856a1.19,1.19,0,0,1-.545-0.728,1.215,1.215,0,0,1,.117-0.912,2.216,2.216,0,0,0,0-2.185,2.1,2.1,0,0,0-1.842-1.092,1.188,1.188,0,0,1-1.168-1.2V678.15a1.188,1.188,0,0,1,1.168-1.2,2.1,2.1,0,0,0,1.842-1.094,2.216,2.216,0,0,0,0-2.185,1.217,1.217,0,0,1,.427-1.638l3.13-1.858a1.149,1.149,0,0,1,1.573.4l0.021,0.036a2.1,2.1,0,0,0,3.684,0,1.151,1.151,0,0,1,1.559-.463l0.037,0.022,3.127,1.859a1.219,1.219,0,0,1,.428,1.639,2.216,2.216,0,0,0,0,2.185h0ZM110,685.6a5.6,5.6,0,1,0-5.6-5.6,5.607,5.607,0,0,0,5.6,5.6h0Zm0-2.541a3.055,3.055,0,1,1,3.057-3.055A3.061,3.061,0,0,1,110,683.063" transform="translate(-100 -670)"/>
</svg>
