<?xml version="1.0" encoding="utf-8"?>
<!-- Generator: Adobe Illustrator 22.1.0, SVG Export Plug-In . SVG Version: 6.00 Build 0)  -->
<svg version="1.1" id="图层_1" xmlns="http://www.w3.org/2000/svg" xmlns:xlink="http://www.w3.org/1999/xlink" x="0px" y="0px"
	 viewBox="0 0 20 20" style="enable-background:new 0 0 20 20;" xml:space="preserve">
<style type="text/css">
	.st0{fill:#FFFFFF;}
</style>
<path class="st0" d="M19.6,3.2c0.8,1.9,0.4,4.1-1.1,5.6c-1.6,1.6-4,1.9-6,0.8l-1.3,1.5l1,1l0.6-0.6c0.3-0.3,0.8-0.3,1.1,0l4.7,4.9
	c0.3,0.3,0.3,0.8,0,1.1l-2.2,2.2c-0.3,0.3-0.8,0.3-1.1,0l-4.8-4.9c-0.3-0.3-0.3-0.8,0-1.1l0.5-0.5l-0.9-1l-6.6,7.3
	c-0.6,0.6-1.5,0.6-2.1,0c0,0,0,0,0,0L0.9,19c-0.6-0.6-0.6-1.6,0-2.2l7.5-6.4l-5-5.1H1.8L0,2.3l1.4-1.5l3,1.9v1.6l5,5.2l1.5-1.2
	c-1.5-2-1.3-4.8,0.5-6.6c1.4-1.4,3.5-1.9,5.4-1.1l-3.1,3.2l2.7,2.8L19.6,3.2z M2.7,17.6c-0.3-0.3-0.8-0.3-1.1,0c0,0,0,0,0,0
	c-0.3,0.3-0.3,0.8,0,1.1c0.3,0.3,0.8,0.3,1.1,0S3,17.9,2.7,17.6z"/>
</svg>
