<?xml version="1.0" encoding="utf-8"?>
<!-- Generator: Adobe Illustrator 22.1.0, SVG Export Plug-In . SVG Version: 6.00 Build 0)  -->
<svg version="1.1" id="图层_1" xmlns="http://www.w3.org/2000/svg" xmlns:xlink="http://www.w3.org/1999/xlink" x="0px" y="0px"
	 viewBox="0 0 20 20" style="enable-background:new 0 0 20 20;" xml:space="preserve">
<style type="text/css">
	.st0{fill:#FFFFFF;}
</style>
<path class="st0" d="M19.6,17.6l-2.4-2.4c-0.5-0.5-1.3-0.5-1.8,0l0,0c-0.5,0.5-0.5,1.3,0,1.8l2.4,2.4c0.5,0.5,1.3,0.5,1.8,0l0,0
	C20.1,18.9,20.1,18.1,19.6,17.6z M15.1,14.9c0.3-0.3,0.3-0.9,0-1.2l-0.8-0.8C15.4,11.6,16,9.9,16,8c0-4.4-3.6-8-8-8C3.6,0,0,3.6,0,8
	s3.6,8,8,8c2,0,3.8-0.7,5.2-1.9l0.8,0.8C14.3,15.2,14.8,15.2,15.1,14.9L15.1,14.9z M8,14.3c-3.5,0-6.3-2.8-6.3-6.3S4.5,1.7,8,1.7
	s6.3,2.8,6.3,6.3S11.5,14.3,8,14.3z M11.3,6.1c-0.3-0.3-0.9-0.3-1.2,0l-3,3L5.9,7.9c-0.3-0.3-0.9-0.3-1.2,0l0,0
	c-0.3,0.3-0.3,0.9,0,1.2l1.8,1.8l0,0c0.3,0.3,0.9,0.3,1.2,0l3.6-3.6C11.6,7,11.6,6.4,11.3,6.1L11.3,6.1z"/>
</svg>
