<?xml version="1.0" encoding="utf-8"?>
<!-- Generator: Adobe Illustrator 22.1.0, SVG Export Plug-In . SVG Version: 6.00 Build 0)  -->
<svg version="1.1" id="图层_1" xmlns="http://www.w3.org/2000/svg" xmlns:xlink="http://www.w3.org/1999/xlink" x="0px" y="0px"
	 viewBox="0 0 20 20" style="enable-background:new 0 0 20 20;" xml:space="preserve">
<style type="text/css">
	.st0{fill:#FFFFFF;}
</style>
<path class="st0" d="M2.9,20h14.1v-1.7H2.9V20z M17.1,6.7L17.1,6.7l-14.1,0v0l0,0L0,9.6l1.2,1.2l1.8-1.8v8.5h14.1V9.1l1.8,1.8
	L20,9.6L17.1,6.7z M5.4,16.7H3.8V15h1.7V16.7z M7.9,16.7H6.3V15h1.7V16.7z M9.6,10H7.9V7.5h1.7V10z M12.1,10h-1.7V7.5h1.7V10z
	 M15.4,0.5h-4.6v0.8H9.2V0.5H4.6v5.8h10.8V0.5z M5.7,5.5H5.4V4.2h0.3V5.5z M6,5.5H5.8V4.2H6V5.5z M6.2,5.5H6.1V4.2h0.1V5.5z
	 M6.5,5.5H6.4V4.2h0.1V5.5z M6.9,5.5H6.6V4.2h0.3V5.5z M7.2,5.5H7.1V4.2h0.1V5.5z M7.5,5.5H7.4V4.2h0.1V5.5z M7.8,5.5H7.7V4.2h0.1
	V5.5z M8.5,5.5H7.9V4.2h0.5V5.5z M8.8,5.5H8.6V4.2h0.1V5.5z M9.1,5.5H8.9V4.2h0.1V5.5z M9.5,5.5H9.2V4.2h0.3V5.5z M10.2,5.5H9.6V4.2
	h0.5V5.5z"/>
</svg>
