<?xml version="1.0" encoding="utf-8"?>
<!-- Generator: Adobe Illustrator 22.1.0, SVG Export Plug-In . SVG Version: 6.00 Build 0)  -->
<svg version="1.1" id="图层_1" xmlns="http://www.w3.org/2000/svg" xmlns:xlink="http://www.w3.org/1999/xlink" x="0px" y="0px"
	 viewBox="0 0 20 20" style="enable-background:new 0 0 20 20;" xml:space="preserve">
<style type="text/css">
	.st0{fill:#FFFFFF;}
</style>
<path class="st0" d="M5,6.7H0v11.7h6.3v-10H5V6.7z M1.7,17.5H0.8v-0.8h0.8V17.5z M3.3,17.5H2.5v-0.8h0.8V17.5z M4.1,14.1L4.1,14.1
	C4,14,3.8,13.9,3.6,13.9c-0.2,0-0.3,0-0.4,0.1v1.1c0,0.3-0.2,0.5-0.5,0.5c-0.3,0-0.5-0.2-0.5-0.5c0-0.1,0-0.1,0.1-0.1s0.1,0,0.1,0.1
	c0,0.2,0.1,0.3,0.3,0.3c0.2,0,0.3-0.1,0.3-0.3V14c-0.1-0.1-0.2-0.1-0.4-0.1c-0.2,0-0.4,0.1-0.5,0.2h0c0-0.1-0.2-0.2-0.5-0.2
	c-0.2,0-0.3,0-0.4,0.1c0.1-0.8,0.8-1.4,1.7-1.5v-0.1c0-0.1,0-0.1,0.1-0.1s0.1,0,0.1,0.1v0.1c0.9,0,1.7,0.7,1.7,1.5
	c-0.1-0.1-0.2-0.1-0.4-0.1C4.3,13.9,4.1,14,4.1,14.1z M5,17.5H4.2v-0.8H5V17.5z M11.3,3.3h4.2c0.5,0,0.8-0.4,0.8-0.8
	c0-0.5-0.4-0.8-0.8-0.8h-4.2c-0.5,0-0.8,0.4-0.8,0.8C10.4,3,10.8,3.3,11.3,3.3z M17.1,2.5v0.8c0,0.5-0.4,0.8-0.8,0.8h-5.8
	c-0.5,0-0.8-0.4-0.8-0.8V2.5H6.7v15.8H20V2.5H17.1z M10,16.2H8.3v-1.7H10V16.2z M10,12.1H8.3v-1.7H10V12.1z M11.1,6.4L9.3,8.1
	c-0.2,0.2-0.4,0.2-0.6,0L8.1,7.6C7.9,7.4,7.9,7.1,8.1,7c0.2-0.2,0.4-0.2,0.6,0L9,7.3l1.5-1.5c0.2-0.2,0.4-0.2,0.6,0
	S11.2,6.2,11.1,6.4z M18.3,16.2h-5.8v-1.7h5.8V16.2z M18.3,12.1h-5.8v-1.7h5.8V12.1z M18.3,7.9h-5.8V6.2h5.8V7.9z"/>
</svg>
