<?xml version="1.0" encoding="utf-8"?>
<!-- Generator: Adobe Illustrator 22.1.0, SVG Export Plug-In . SVG Version: 6.00 Build 0)  -->
<svg version="1.1" id="图层_1" xmlns="http://www.w3.org/2000/svg" xmlns:xlink="http://www.w3.org/1999/xlink" x="0px" y="0px"
	 viewBox="0 0 20 20" style="enable-background:new 0 0 20 20;" xml:space="preserve">
<style type="text/css">
	.st0{fill:#FFFFFF;}
</style>
<path class="st0" d="M8.5,12l1-0.3V10l-1-0.3C8.5,9.5,8.4,9.2,8.2,9l0.5-0.9L7.5,6.9L6.6,7.4C6.4,7.3,6.2,7.2,5.9,7.1l-0.3-1H3.9
	l-0.3,1C3.4,7.2,3.2,7.3,2.9,7.4L2,6.9L0.8,8.1L1.3,9C1.2,9.2,1.1,9.5,1,9.7L0,10v1.7L1,12c0.1,0.3,0.2,0.5,0.3,0.7l-0.5,0.9L2,14.9
	l0.9-0.5c0.2,0.1,0.5,0.2,0.7,0.3l0.3,1h1.7l0.3-1c0.3-0.1,0.5-0.2,0.7-0.3l0.9,0.5l1.2-1.2l-0.5-0.9C8.4,12.5,8.5,12.3,8.5,12z
	 M4.8,13.5c-1.4,0-2.6-1.2-2.6-2.6c0-1.4,1.2-2.6,2.6-2.6s2.6,1.2,2.6,2.6C7.4,12.3,6.2,13.5,4.8,13.5z M10.4,5.9L9.8,6.8L11,8
	L12,7.5c0.1,0.1,0.3,0.1,0.4,0.2l0.3,1.1h1.7l0.3-1.1c0.1,0,0.3-0.1,0.4-0.2L15.9,8l1.2-1.2l-0.6-0.9c0.1-0.1,0.1-0.3,0.2-0.4
	l1.1-0.3V3.5l-1.1-0.3c0-0.1-0.1-0.3-0.2-0.4l0.6-0.9l-1.2-1.2L15,1.2c-0.1-0.1-0.3-0.1-0.4-0.2L14.3,0h-1.7l-0.3,1.1
	c-0.1,0-0.3,0.1-0.4,0.2L11,0.7L9.8,1.9l0.6,0.9c-0.1,0.1-0.1,0.3-0.2,0.4L9.1,3.5v1.7l1.1,0.3C10.2,5.6,10.3,5.7,10.4,5.9z
	 M13.5,2.2c1.2,0,2.2,1,2.2,2.2c0,1.2-1,2.2-2.2,2.2s-2.2-1-2.2-2.2C11.3,3.1,12.3,2.2,13.5,2.2z M20,15.7v-1.7l-1-0.3
	c-0.1-0.4-0.2-0.7-0.4-1l0.5-0.9l-1.2-1.2L17,11c-0.3-0.2-0.7-0.3-1-0.4l-0.3-1h-1.7l-0.3,1c-0.4,0.1-0.7,0.2-1,0.4l-0.9-0.5
	l-1.2,1.2l0.5,0.9c-0.2,0.3-0.3,0.7-0.4,1l-1,0.3v1.7l1,0.3c0.1,0.4,0.2,0.7,0.4,1l-0.5,0.9l1.2,1.2l0.9-0.5c0.3,0.2,0.7,0.3,1,0.4
	l0.3,1h1.7l0.3-1c0.4-0.1,0.7-0.2,1-0.4l0.9,0.5l1.2-1.2L18.5,17c0.2-0.3,0.3-0.7,0.4-1L20,15.7z M14.8,17.8c-1.7,0-3-1.4-3-3
	c0-1.7,1.4-3,3-3s3,1.4,3,3C17.8,16.5,16.5,17.8,14.8,17.8z"/>
</svg>
